<svg xmlns="http://www.w3.org/2000/svg" width="831" height="231"><defs><marker orient="auto" id="a" overflow="visible"><path d="M8.719 4.034L-2.207.016 8.719-4.002c-1.746 2.372-1.736 5.618 0 8.036z" transform="matrix(-1.1 0 0 -1.1 -1.1 0)" font-size="12" fill-rule="evenodd" stroke-width=".625" stroke-linejoin="round"/></marker></defs><g transform="translate(66.219 -117.563)"><rect width="269.961" height="69.988" x="214.305" y="118.096" rx="10.798" ry="9.998" fill="#3771c8" fill-rule="evenodd" stroke="#000" stroke-width="1.039"/><rect y="278.069" x="214.305" height="69.988" width="269.961" rx="10.798" ry="9.998" fill="#3771c8" fill-rule="evenodd" stroke="#000" stroke-width="1.039"/><rect width="269.961" height="69.961" x="-65.695" y="278.096" rx="10.798" ry="9.994" fill="#3771c8" fill-rule="evenodd" stroke="#000" stroke-width="1.039"/><rect y="278.096" x="494.305" height="69.961" width="269.961" rx="10.798" ry="9.994" fill="#3771c8" fill-rule="evenodd" stroke="#000" stroke-width="1.039"/><rect width="50" height="50" x="234.251" y="124.914" rx="11.448" ry="10.494" fill="#d7e3f4"/><text style="text-align:center;line-height:125%" x="258.053" y="163.003" font-size="40" font-weight="400" letter-spacing="0" word-spacing="0" text-anchor="middle" font-family="Sans"><tspan x="258.053" y="163.003" style="text-align:center" font-size="36">7</tspan></text><path d="M232.325 177.603a5 5 0 1 1-10 0 5 5 0 0 1 10 0z" fill="#d7e3f4"/><rect ry="10.494" rx="11.448" y="124.914" x="296.251" height="50" width="50" fill="#d7e3f4"/><text y="163.003" x="320.053" style="text-align:center;line-height:125%" font-size="40" font-weight="400" letter-spacing="0" word-spacing="0" text-anchor="middle" font-family="Sans"><tspan style="text-align:center" y="163.003" x="320.053" font-size="36">16</tspan></text><path d="M294.325 177.603a5 5 0 1 1-10 0 5 5 0 0 1 10 0z" fill="#d7e3f4"/><rect ry="10.494" rx="11.448" y="284.914" x="234.251" height="50" width="50" fill="#d7e3f4"/><text y="323.003" x="258.053" style="text-align:center;line-height:125%" font-size="40" font-weight="400" letter-spacing="0" word-spacing="0" text-anchor="middle" font-family="Sans"><tspan style="text-align:center" y="323.003" x="258.053" font-size="36">9</tspan></text><path d="M232.325 337.603a5 5 0 1 1-10 0 5 5 0 0 1 10 0z" fill="#d7e3f4"/><rect width="50" height="50" x="296.251" y="284.914" rx="11.448" ry="10.494" fill="#d7e3f4"/><text style="text-align:center;line-height:125%" x="320.053" y="323.003" font-size="40" font-weight="400" letter-spacing="0" word-spacing="0" text-anchor="middle" font-family="Sans"><tspan x="320.053" y="323.003" style="text-align:center" font-size="36">12</tspan></text><path d="M294.325 337.603a5 5 0 1 1-10 0 5 5 0 0 1 10 0zm62-160a5 5 0 1 1-10 0 5 5 0 0 1 10 0zm0 160a5 5 0 1 1-10 0 5 5 0 0 1 10 0z" fill="#d7e3f4"/><rect width="50" height="50" x="-45.749" y="284.914" rx="11.448" ry="10.494" fill="#d7e3f4"/><text style="text-align:center;line-height:125%" x="-21.947" y="323.003" font-size="40" font-weight="400" letter-spacing="0" word-spacing="0" text-anchor="middle" font-family="Sans"><tspan x="-21.947" y="323.003" style="text-align:center" font-size="36">1</tspan></text><path d="M-47.675 337.603a5 5 0 1 1-10 0 5 5 0 0 1 10 0z" fill="#d7e3f4"/><rect ry="10.494" rx="11.448" y="284.914" x="16.251" height="50" width="50" fill="#d7e3f4"/><text y="323.003" x="40.053" style="text-align:center;line-height:125%" font-size="40" font-weight="400" letter-spacing="0" word-spacing="0" text-anchor="middle" font-family="Sans"><tspan style="text-align:center" y="323.003" x="40.053" font-size="36">2</tspan></text><path d="M14.325 337.603a5 5 0 1 1-10 0 5 5 0 0 1 10 0zm62 0a5 5 0 1 1-10 0 5 5 0 0 1 10 0z" fill="#d7e3f4"/><rect ry="10.494" rx="11.448" y="284.914" x="514.251" height="50" width="50" fill="#d7e3f4"/><text y="323.003" x="538.053" style="text-align:center;line-height:125%" font-size="40" font-weight="400" letter-spacing="0" word-spacing="0" text-anchor="middle" font-family="Sans"><tspan style="text-align:center" y="323.003" x="538.053" font-size="36">18</tspan></text><path d="M512.325 337.603a5 5 0 1 1-10 0 5 5 0 0 1 10 0z" fill="#d7e3f4"/><rect width="50" height="50" x="576.251" y="284.914" rx="11.448" ry="10.494" fill="#d7e3f4"/><text style="text-align:center;line-height:125%" x="600.053" y="323.003" font-size="40" font-weight="400" letter-spacing="0" word-spacing="0" text-anchor="middle" font-family="Sans"><tspan x="600.053" y="323.003" style="text-align:center" font-size="36">21</tspan></text><path d="M574.325 337.603a5 5 0 1 1-10 0 5 5 0 0 1 10 0zm62 0a5 5 0 1 1-10 0 5 5 0 0 1 10 0z" fill="#d7e3f4"/><rect width="50" height="50" x="76.251" y="284.914" rx="11.448" ry="10.494" fill="#d7e3f4"/><text style="text-align:center;line-height:125%" x="100.053" y="323.003" font-size="40" font-weight="400" letter-spacing="0" word-spacing="0" text-anchor="middle" font-family="Sans"><tspan x="100.053" y="323.003" style="text-align:center" font-size="36">5</tspan></text><path d="M136.325 337.603a5 5 0 1 1-10 0 5 5 0 0 1 10 0z" fill="#d7e3f4"/><rect ry="10.494" rx="11.448" y="284.914" x="138.251" height="50" width="50" fill="#d7e3f4"/><text y="323.003" x="162.053" style="text-align:center;line-height:125%" font-size="40" font-weight="400" letter-spacing="0" word-spacing="0" text-anchor="middle" font-family="Sans"><tspan style="text-align:center" y="323.003" x="162.053" font-size="36">6</tspan></text><path d="M198.325 337.603a5 5 0 1 1-10 0 5 5 0 0 1 10 0z" fill="#d7e3f4"/><path d="M224.295 181.954L77.17 276.158m211.978-94.204l1.704 94.204m59.443-94.204l171.096 94.204" stroke="#000" stroke-width="3" marker-end="url(#a)"/></g></svg>